<?xml version="1.0" encoding="UTF-8" standalone="no"?>
<svg
   sodipodi:docname="blog icon.svg"
   inkscape:version="1.1.1 (3bf5ae0d25, 2021-09-20, custom)"
   inkscape:export-ydpi="5"
   inkscape:export-xdpi="5"
   inkscape:export-filename="/home/divyaksh/Documents/Coding/node/portfolio website/public/icon.png"
   id="svg8"
   version="1.1"
   viewBox="0 0 297 297"
   height="297mm"
   width="297mm"
   xmlns:inkscape="http://www.inkscape.org/namespaces/inkscape"
   xmlns:sodipodi="http://sodipodi.sourceforge.net/DTD/sodipodi-0.dtd"
   xmlns="http://www.w3.org/2000/svg"
   xmlns:svg="http://www.w3.org/2000/svg"
   xmlns:rdf="http://www.w3.org/1999/02/22-rdf-syntax-ns#"
   xmlns:cc="http://creativecommons.org/ns#"
   xmlns:dc="http://purl.org/dc/elements/1.1/">
  <defs
     id="defs2">
    <rect
       id="rect18"
       height="195.03571"
       width="168.57738"
       y="61.988095"
       x="104.32143" />
    <rect
       id="rect12"
       height="153.45833"
       width="163.28571"
       y="72.571429"
       x="26.458333" />
  </defs>
  <sodipodi:namedview
     inkscape:window-maximized="1"
     inkscape:window-y="43"
     inkscape:window-x="0"
     inkscape:window-height="1363"
     inkscape:window-width="2560"
     showgrid="false"
     inkscape:document-rotation="0"
     inkscape:current-layer="layer1"
     inkscape:document-units="mm"
     inkscape:cy="552.50964"
     inkscape:cx="808.66604"
     inkscape:zoom="0.63437807"
     inkscape:pageshadow="2"
     inkscape:pageopacity="0.0"
     borderopacity="1.0"
     bordercolor="#666666"
     pagecolor="#ffffff"
     id="base"
     inkscape:pagecheckerboard="0" />
  <metadata
     id="metadata5">
    <rdf:RDF>
      <cc:Work
         rdf:about="">
        <dc:format>image/svg+xml</dc:format>
        <dc:type
           rdf:resource="http://purl.org/dc/dcmitype/StillImage" />
      </cc:Work>
    </rdf:RDF>
  </metadata>
  <g
     inkscape:groupmode="layer"
     id="layer1"
     inkscape:label="Layer 3">
    <rect
       style="fill:#ffffff;stroke-width:0;stroke-linejoin:round"
       id="rect857"
       width="296.12335"
       height="296.95752"
       x="0.83415025"
       y="0.83415025"
       ry="4.7283158" />
  </g>
  <g
     inkscape:label="Layer 2"
     id="layer2"
     inkscape:groupmode="layer">
    <g
       aria-label="D"
       transform="matrix(37.388771,0,0,37.388771,-1006.1843,-2792.2265)"
       id="text10"
       style="font-size:10.5833px;white-space:pre;fill:#282828;stroke:none;stroke-width:0;fill-opacity:1;stroke-miterlimit:4;stroke-dasharray:none">
      <g
         id="path832"
         style="stroke:none;fill:#282828;fill-opacity:1;stroke-width:0;stroke-miterlimit:4;stroke-dasharray:none">
        <path
           style="color:#000000;-inkscape-font-specification:'French Script MT, Normal';stroke:none;fill:#282828;fill-opacity:1;stroke-width:0;stroke-miterlimit:4;stroke-dasharray:none"
           d="m 29.368358,77.72439 q -0.07235,0.661456 -0.408242,1.012854 -0.330728,0.351399 -0.816485,0.351399 -0.475422,0 -0.78548,-0.361734 -0.30489,-0.366901 -0.30489,-0.909502 0,-1.085202 0.894,-1.896519 0.899167,-0.811318 2.258253,-0.811318 1.457271,0 2.366773,0.940508 0.91467,0.940509 0.91467,2.454623 0,1.483109 -0.852659,2.516634 -0.852658,1.033526 -1.912022,1.033526 -0.356566,0 -0.82682,-0.289387 -0.465086,-0.294555 -0.800982,-0.294555 -0.439248,0 -0.837156,0.583942 l -0.124023,-0.07752 q 0.201538,-0.501259 0.831988,-0.950843 0.635618,-0.449583 0.847491,-0.811317 0.211873,-0.361734 0.211873,-0.966347 0,-0.299722 -0.05168,-0.816485 -0.05168,-0.516762 -0.05168,-0.749305 0,-0.640786 0.242879,-1.038693 0.242878,-0.397908 0.780311,-0.635619 l 0.06718,0.118856 q -0.552937,0.392739 -0.552937,1.090369 0,0.227376 0.08785,0.811318 0.09302,0.578774 0.09302,0.899167 0,0.651121 -0.330728,1.142045 -0.32556,0.490925 -1.15238,1.018023 l 0.253213,-0.01034 q 0.58911,0 1.028358,0.273885 0.444416,0.268716 0.837156,0.268716 0.656288,0 1.183386,-0.769976 0.532266,-0.769977 0.532266,-1.901687 0,-1.483109 -0.935341,-2.490796 -0.930173,-1.007687 -2.26342,-1.007687 -1.028358,0 -1.705317,0.604612 -0.676959,0.599445 -0.676959,1.457271 0,0.470254 0.258381,0.764809 0.258381,0.294554 0.651121,0.294554 0.671791,0 0.91467,-0.878496 z"
           id="path858" />
        <path
           style="color:#000000;-inkscape-font-specification:'French Script MT, Normal';stroke:none;fill:#282828;fill-opacity:1;stroke-width:0;stroke-miterlimit:4;stroke-dasharray:none"
           d="m 30.205078,75.042969 c -0.919361,0 -1.69085,0.276022 -2.302734,0.828125 -0.606986,0.550848 -0.916016,1.205437 -0.916016,1.947265 0,0.374258 0.106698,0.69411 0.320313,0.951172 0.217694,0.253977 0.503984,0.386719 0.83789,0.386719 0.339314,0 0.631805,-0.127808 0.863281,-0.373047 0.236751,-0.24768 0.378425,-0.599965 0.427735,-1.050781 l 0.0059,-0.06055 -0.05859,-0.01172 -0.195312,-0.04687 -0.01758,0.0625 c -0.07885,0.285201 -0.191383,0.493821 -0.332031,0.628906 -0.140648,0.135086 -0.310175,0.201172 -0.519532,0.201172 -0.24511,0 -0.43843,-0.08969 -0.599609,-0.273437 -0.160621,-0.183109 -0.242188,-0.419447 -0.242188,-0.720703 0,-0.554295 0.214844,-1.017115 0.654297,-1.40625 0.43876,-0.391869 0.989643,-0.587891 1.66211,-0.587891 0.871984,0 1.603575,0.326237 2.21289,0.986328 0.612433,0.659803 0.917969,1.470631 0.917969,2.445313 0,0.74399 -0.173401,1.362568 -0.519531,1.863281 -0.344091,0.502643 -0.717531,0.742188 -1.128906,0.742187 -0.246577,0 -0.513921,-0.08513 -0.802735,-0.259765 -0.30422,-0.189691 -0.659398,-0.283203 -1.0625,-0.283203 h -0.002 l -0.06836,0.002 c 0.449845,-0.307532 0.828319,-0.609078 1.02539,-0.90625 0.228139,-0.338643 0.341797,-0.734286 0.341797,-1.179688 0,-0.220066 -0.03143,-0.520445 -0.09375,-0.908203 -0.05838,-0.388031 -0.08789,-0.657809 -0.08789,-0.800781 0,-0.447421 0.172004,-0.786107 0.52539,-1.037109 l 0.04883,-0.03516 -0.126953,-0.222656 -0.05469,0.02344 c -0.367503,0.162549 -0.640287,0.383171 -0.810547,0.662109 -0.170235,0.278895 -0.253906,0.638581 -0.253906,1.074219 0,0.159982 0.01818,0.410363 0.05273,0.755859 0.03433,0.343235 0.05078,0.612623 0.05078,0.808594 0,0.395264 -0.06813,0.706457 -0.201172,0.933594 -0.132616,0.226418 -0.410376,0.494153 -0.830078,0.791015 -0.427121,0.304588 -0.714689,0.630326 -0.855469,0.980469 l -0.01953,0.05078 0.226563,0.142578 0.03516,-0.05469 c 0.258825,-0.379833 0.518049,-0.554688 0.78125,-0.554688 0.204385,0 0.461715,0.09268 0.765625,0.285157 h 0.002 c 0.319927,0.196878 0.605529,0.298828 0.861328,0.298828 0.727987,0 1.385802,-0.357139 1.962891,-1.056641 0.57843,-0.701127 0.86914,-1.558995 0.86914,-2.560547 0,-1.022872 -0.311311,-1.860138 -0.933593,-2.5 -0.61874,-0.639833 -1.430118,-0.960937 -2.416016,-0.960937 z m 0,0.132812 c 0.957129,0 1.724431,0.305746 2.318359,0.919922 v 0.002 c 0.597277,0.614149 0.896485,1.410306 0.896485,2.40625 0,0.975925 -0.279443,1.797705 -0.837891,2.47461 -0.393303,0.476731 -0.853533,0.569722 -1.30664,0.708984 -0.1918,0.05895 -0.349161,0.300781 -0.552735,0.300781 -0.21914,0 -0.484794,-0.09117 -0.791015,-0.279297 h -0.002 c -0.315392,-0.199457 -0.592963,-0.304687 -0.835937,-0.304687 -0.301166,0 -0.576949,0.222709 -0.833984,0.572265 l -0.02734,-0.01563 c 0.121177,-0.273608 0.364008,-0.538547 0.697265,-0.794921 l 0.480469,-0.02148 c 0.382378,0 0.710745,0.08818 0.992188,0.263672 l 0.002,0.002 c 0.30374,0.183657 0.594017,0.277344 0.871094,0.277344 0.463674,0 0.879576,-0.274837 1.238281,-0.798828 0.363557,-0.525922 0.544922,-1.174498 0.544922,-1.939453 0,-1.002795 -0.318438,-1.853331 -0.953125,-2.53711 -0.630915,-0.68349 -1.406824,-1.029297 -2.3125,-1.029297 -0.698676,0 -1.286149,0.208768 -1.75,0.623047 -0.463158,0.410125 -0.699219,0.916387 -0.699219,1.50586 0,0.325748 0.08955,0.600916 0.273437,0.810547 0.183329,0.208994 0.42263,0.316406 0.701172,0.316406 0.238504,0 0.447087,-0.08053 0.611328,-0.238281 0.150296,-0.144352 0.255956,-0.36672 0.337891,-0.63086 l 0.01367,0.002 c -0.05345,0.395489 -0.169849,0.711431 -0.369141,0.919922 -0.209287,0.222369 -0.459864,0.330078 -0.767578,0.330078 -0.299332,0 -0.538899,-0.110573 -0.734375,-0.33789 -0.192904,-0.232139 -0.289062,-0.516025 -0.289062,-0.865235 0,-0.705106 0.286081,-1.316749 0.871093,-1.847656 0.587004,-0.529653 1.32014,-0.794922 2.212891,-0.794922 z m 0.71875,0.931641 0.01563,0.0293 c -0.342296,0.269634 -0.546875,0.626519 -0.546875,1.082031 0,0.160195 0.02913,0.429756 0.08789,0.820312 0.06171,0.383941 0.0918,0.681548 0.0918,0.888672 0,0.42276 -0.105528,0.789547 -0.31836,1.105469 -0.208722,0.314741 -0.58618,0.649568 -1.132812,0.998047 l -0.171875,0.111328 c 0.02619,-0.01974 0.0272,-0.04093 0.05469,-0.06055 0.427788,-0.302581 0.717307,-0.578091 0.867188,-0.833984 0.149459,-0.255175 0.220703,-0.589115 0.220703,-1 0,-0.203658 -0.01815,-0.476484 -0.05273,-0.822266 -0.03435,-0.343519 -0.05078,-0.592112 -0.05078,-0.742187 0,-0.418742 0.07882,-0.75226 0.232422,-1.003907 0.144076,-0.23604 0.387394,-0.421744 0.703125,-0.572265 z"
           id="path860" />
      </g>
    </g>
    <g
       aria-label="S"
       transform="matrix(28.128116,0,0,28.128116,-2793.9378,-1729.2532)"
       id="text16"
       style="font-size:10.5833px;white-space:pre;fill:#282828;stroke:none;stroke-width:0;stroke-miterlimit:4;stroke-dasharray:none;fill-opacity:1">
      <g
         id="path835"
         style="stroke:none;stroke-width:0;stroke-miterlimit:4;stroke-dasharray:none;fill:#282828;fill-opacity:1">
        <path
           style="color:#000000;-inkscape-font-specification:'French Script MT, Normal';stroke:none;stroke-width:0;stroke-miterlimit:4;stroke-dasharray:none;fill:#282828;fill-opacity:1"
           d="m 109.65526,64.525586 q -0.18087,0.299722 -0.57878,0.511595 -0.39791,0.206705 -0.76481,0.206705 -0.36173,0 -1.01802,-0.211873 -0.65112,-0.211872 -0.84232,-0.211872 -0.35657,0 -0.61495,0.273884 -0.25321,0.273884 -0.25321,0.661456 0,0.377237 0.23254,0.620115 0.23771,0.237711 0.58394,0.377237 0.3514,0.134358 1.09037,0.341064 0.73897,0.201537 1.18855,0.397907 0.44959,0.191202 0.75965,0.578774 0.31522,0.382404 0.31522,1.007687 0,0.935341 -0.76998,1.663976 -0.7648,0.728635 -1.89651,0.728635 -1.03353,0 -1.71566,-0.5426 -0.67696,-0.542601 -0.67696,-1.291907 0,-0.552936 0.39791,-0.919838 0.39791,-0.372069 1.02836,-0.372069 0.66146,0 1.11621,0.366902 0.45992,0.361734 0.45992,0.862993 0,0.341064 -0.23771,0.563272 -0.23255,0.21704 -0.56328,0.21704 -0.54776,0 -0.81648,-0.506427 l 0.12919,-0.07235 q 0.19637,0.201537 0.43408,0.201537 0.25321,0 0.41858,-0.175699 0.17053,-0.180867 0.17053,-0.449584 0,-0.335895 -0.28422,-0.558103 -0.27905,-0.227376 -0.67696,-0.227376 -0.46509,0 -0.77514,0.341064 -0.30489,0.341063 -0.30489,0.816485 0,0.625282 0.54777,1.074866 0.55293,0.449583 1.39009,0.449583 0.894,0 1.48827,-0.558103 0.59428,-0.563272 0.59428,-1.317745 0,-0.516763 -0.27905,-0.837156 -0.27389,-0.320392 -0.66146,-0.480589 -0.3824,-0.160196 -1.0697,-0.356566 -0.68729,-0.19637 -1.07486,-0.356566 -0.38241,-0.160197 -0.64596,-0.465087 -0.25838,-0.30489 -0.25838,-0.795814 0,-0.671792 0.53227,-1.152381 0.53226,-0.485757 1.23506,-0.485757 0.32556,0 0.93017,0.170532 0.60978,0.165364 0.8785,0.165364 0.43925,0 0.76481,-0.346231 z"
           id="path864" />
        <path
           style="color:#000000;-inkscape-font-specification:'French Script MT, Normal';stroke:none;stroke-width:0;stroke-miterlimit:4;stroke-dasharray:none;fill:#282828;fill-opacity:1"
           d="m 109.56055,64.304687 -0.0625,0.06641 c -0.20338,0.216287 -0.43169,0.318359 -0.70117,0.318359 -0.16057,0 -0.45157,-0.05322 -0.85352,-0.162109 h -0.002 c -0.40592,-0.114372 -0.72103,-0.173828 -0.95313,-0.173828 -0.48901,0 -0.92569,0.172797 -1.29492,0.509765 -0.37014,0.334197 -0.56055,0.745463 -0.56055,1.216797 0,0.342875 0.0918,0.632306 0.2793,0.853516 v 0.002 c 0.18457,0.213523 0.41292,0.376531 0.67969,0.488281 0.26367,0.108985 0.62389,0.22792 1.08398,0.359375 0.45625,0.130356 0.81118,0.24905 1.06055,0.353516 0.24588,0.101631 0.45306,0.253614 0.62695,0.457031 h 0.002 c 0.17049,0.195749 0.25586,0.450787 0.25586,0.779297 0,0.478745 -0.1841,0.890561 -0.56445,1.251953 -4.6e-4,4.28e-4 -0.002,-4.28e-4 -0.002,0 -5e-4,4.68e-4 4.9e-4,0.0015 0,0.002 -0.37964,0.355663 -0.84923,0.533203 -1.42578,0.533203 -0.5422,0 -0.9824,-0.143817 -1.33399,-0.429687 -0.34956,-0.286903 -0.51562,-0.614959 -0.51562,-1.00586 0,-0.297948 0.0936,-0.545735 0.2832,-0.757812 0.19155,-0.210013 0.41936,-0.310547 0.70703,-0.310547 0.24835,0 0.4511,0.06852 0.6211,0.207031 h 0.002 c 0.17236,0.134755 0.25,0.28942 0.25,0.488281 0,0.160344 -0.0479,0.28408 -0.14649,0.388672 -0.0947,0.100647 -0.20526,0.148438 -0.35351,0.148438 -0.13336,0 -0.25269,-0.05426 -0.3711,-0.175781 l -0.0469,-0.04883 -0.26367,0.148438 0.0391,0.07813 c 0.19087,0.359705 0.50392,0.552734 0.89648,0.552734 0.23993,0 0.45265,-0.0812 0.62305,-0.240234 0.17505,-0.16363 0.26563,-0.380882 0.26563,-0.628906 0,-0.360452 -0.17146,-0.678465 -0.49219,-0.931641 -4.8e-4,-3.87e-4 -0.001,3.87e-4 -0.002,0 -0.31931,-0.25705 -0.71321,-0.386719 -1.16993,-0.386719 -0.43778,0 -0.80746,0.132445 -1.08984,0.396485 -0.28071,0.259504 -0.42578,0.595082 -0.42578,0.984375 0,0.526302 0.24405,0.987107 0.71094,1.361328 0.47186,0.375347 1.06691,0.5625 1.77148,0.5625 0.77355,0 1.43131,-0.253048 1.95703,-0.753906 0.52711,-0.498807 0.79688,-1.080567 0.79688,-1.728516 0,-0.43179 -0.11067,-0.791171 -0.33594,-1.064453 -0.2147,-0.267659 -0.47965,-0.470819 -0.79102,-0.603516 h -0.002 c -0.30569,-0.133403 -0.70464,-0.267459 -1.19922,-0.402344 -0.49054,-0.137216 -0.85096,-0.25037 -1.08008,-0.33789 h -0.002 c -0.22039,-0.08904 -0.40374,-0.208428 -0.55273,-0.357422 -0.13796,-0.144995 -0.20703,-0.324395 -0.20703,-0.556641 0,-0.239025 0.0758,-0.434318 0.23046,-0.601562 0.1579,-0.166721 0.33451,-0.246094 0.54883,-0.246094 0.0946,0 0.38281,0.06853 0.81446,0.208984 0.44206,0.142716 0.78836,0.214844 1.04687,0.214844 0.26129,0 0.5295,-0.07384 0.80469,-0.216797 h 0.002 c 0.27569,-0.146794 0.48064,-0.3264 0.61133,-0.542968 l 0.0371,-0.06055 -0.0488,-0.04883 z m -2.57227,0.226563 c 0.20152,0 0.50719,0.05541 0.90625,0.167969 h 0.002 c 0.40971,0.111106 0.70302,0.167968 0.9004,0.167968 0.26788,0 0.49457,-0.138927 0.70312,-0.316406 -0.11158,0.150421 -0.24744,0.292442 -0.46484,0.408203 -0.25536,0.132652 -0.49475,0.195313 -0.72266,0.195313 -0.2238,0 -0.5592,-0.06725 -0.99219,-0.207031 -0.42682,-0.138885 -0.68795,-0.209671 -0.84961,-0.212891 0.17489,-0.05956 0.32015,-0.203125 0.51758,-0.203125 z m -0.7832,0.308594 c -0.14152,0.04403 -0.29116,0.06711 -0.4043,0.179687 0.008,-0.0072 0.004,-0.01822 0.0117,-0.02539 h 0.002 c 0.11332,-0.10342 0.26651,-0.08582 0.39063,-0.154297 z m -0.54688,0.486328 c -0.0653,0.13923 -0.16406,0.264655 -0.16406,0.429687 0,0.269754 0.0869,0.503119 0.25781,0.681641 0.16758,0.167582 0.37473,0.301515 0.61524,0.398437 0.23947,0.09157 0.60567,0.205585 1.09961,0.34375 0.48999,0.133634 0.88221,0.266304 1.17578,0.394532 h 0.002 c 0.2866,0.121883 0.52654,0.305149 0.72461,0.552734 0.19502,0.236589 0.29492,0.549252 0.29492,0.951172 0,0.599171 -0.24266,1.126903 -0.74218,1.599609 -0.49402,0.470654 -1.09859,0.705078 -1.83399,0.705078 -0.67274,0 -1.22275,-0.17606 -1.66016,-0.523437 -0.43572,-0.349247 -0.64453,-0.749885 -0.64453,-1.222656 0,-0.347304 0.12023,-0.625951 0.36914,-0.855469 0.24817,-0.232052 0.56594,-0.347656 0.96875,-0.347656 0.0578,0 0.0895,0.04258 0.14454,0.04687 -0.32979,0.0012 -0.61542,0.124603 -0.83594,0.367187 -0.21694,0.242673 -0.32813,0.541006 -0.32813,0.876953 0,0.442808 0.19928,0.830036 0.58008,1.142578 0.38566,0.313574 0.87325,0.470704 1.44727,0.470704 0.61449,0 1.13643,-0.194738 1.54882,-0.582032 0.41057,-0.389144 0.6211,-0.856495 0.6211,-1.382812 0,-0.359564 -0.0983,-0.663319 -0.29883,-0.894531 l -0.002,-0.002 c -0.19095,-0.222717 -0.42334,-0.392296 -0.69336,-0.503906 -0.2605,-0.109129 -0.61993,-0.227904 -1.08008,-0.359375 -0.4563,-0.130371 -0.81137,-0.248906 -1.06445,-0.353515 -0.24312,-0.101846 -0.44646,-0.24841 -0.61328,-0.441407 -0.1563,-0.185134 -0.23633,-0.427338 -0.23633,-0.738281 0,-0.294506 0.18601,-0.519092 0.34765,-0.753906 z m 1.12305,3.324219 c 0.12669,0.05439 0.29215,0.04353 0.40039,0.130859 0.29093,0.228823 0.42578,0.485979 0.42578,0.792969 0,0.206727 -0.0671,0.365399 -0.20898,0.498047 -0.13967,0.130353 -0.30091,0.193359 -0.50196,0.193359 -0.23248,0 -0.36189,-0.171101 -0.50781,-0.316406 0.0851,0.04027 0.16022,0.117187 0.25391,0.117187 0.18936,0 0.35666,-0.06951 0.48242,-0.203125 0.12876,-0.136563 0.19531,-0.313773 0.19531,-0.511719 0,-0.248998 -0.11176,-0.46543 -0.31836,-0.626953 -0.0608,-0.04938 -0.1518,-0.03967 -0.2207,-0.07422 z"
           id="path866" />
      </g>
    </g>
  </g>
</svg>
