<?xml version="1.0" encoding="UTF-8"?>
<svg width="297mm" height="297mm" version="1.1" viewBox="0 0 297 297" xmlns="http://www.w3.org/2000/svg" xmlns:cc="http://creativecommons.org/ns#" xmlns:dc="http://purl.org/dc/elements/1.1/" xmlns:rdf="http://www.w3.org/1999/02/22-rdf-syntax-ns#">
 <metadata>
  <rdf:RDF>
   <cc:Work rdf:about="">
    <dc:format>image/svg+xml</dc:format>
    <dc:type rdf:resource="http://purl.org/dc/dcmitype/StillImage"/>
   </cc:Work>
  </rdf:RDF>
 </metadata>
 <g fill="#282828">
  <g transform="matrix(37.389 0 0 37.389 -1006.2 -2792.2)" style="white-space:pre" aria-label="D">
   <g fill="#282828">
    <path d="m29.368 77.724q-0.07235 0.66146-0.40824 1.0129-0.33073 0.3514-0.81648 0.3514-0.47542 0-0.78548-0.36173-0.30489-0.3669-0.30489-0.9095 0-1.0852 0.894-1.8965 0.89917-0.81132 2.2583-0.81132 1.4573 0 2.3668 0.94051 0.91467 0.94051 0.91467 2.4546 0 1.4831-0.85266 2.5166-0.85266 1.0335-1.912 1.0335-0.35657 0-0.82682-0.28939-0.46509-0.29456-0.80098-0.29456-0.43925 0-0.83716 0.58394l-0.12402-0.07752q0.20154-0.50126 0.83199-0.95084 0.63562-0.44958 0.84749-0.81132t0.21187-0.96635q0-0.29972-0.05168-0.81648-0.05168-0.51676-0.05168-0.7493 0-0.64079 0.24288-1.0387 0.24288-0.39791 0.78031-0.63562l0.06718 0.11886q-0.55294 0.39274-0.55294 1.0904 0 0.22738 0.08785 0.81132 0.09302 0.57877 0.09302 0.89917 0 0.65112-0.33073 1.142-0.32556 0.49092-1.1524 1.018l0.25321-0.01034q0.58911 0 1.0284 0.27388 0.44442 0.26872 0.83716 0.26872 0.65629 0 1.1834-0.76998 0.53227-0.76998 0.53227-1.9017 0-1.4831-0.93534-2.4908-0.93017-1.0077-2.2634-1.0077-1.0284 0-1.7053 0.60461-0.67696 0.59944-0.67696 1.4573 0 0.47025 0.25838 0.76481 0.25838 0.29455 0.65112 0.29455 0.67179 0 0.91467-0.8785z" color="#000000"/>
    <path d="m30.205 75.043c-0.91936 0-1.6908 0.27602-2.3027 0.82812-0.60699 0.55085-0.91602 1.2054-0.91602 1.9473 0 0.37426 0.1067 0.69411 0.32031 0.95117 0.21769 0.25398 0.50398 0.38672 0.83789 0.38672 0.33931 0 0.6318-0.12781 0.86328-0.37305 0.23675-0.24768 0.37842-0.59996 0.42774-1.0508l0.0059-0.06055-0.05859-0.01172-0.19531-0.04687-0.01758 0.0625c-0.07885 0.2852-0.19138 0.49382-0.33203 0.62891-0.14065 0.13509-0.31018 0.20117-0.51953 0.20117-0.24511 0-0.43843-0.08969-0.59961-0.27344-0.16062-0.18311-0.24219-0.41945-0.24219-0.7207 0-0.5543 0.21484-1.0171 0.6543-1.4062 0.43876-0.39187 0.98964-0.58789 1.6621-0.58789 0.87198 0 1.6036 0.32624 2.2129 0.98633 0.61243 0.6598 0.91797 1.4706 0.91797 2.4453 0 0.74399-0.1734 1.3626-0.51953 1.8633-0.34409 0.50264-0.71753 0.74219-1.1289 0.74219-0.24658 0-0.51392-0.08513-0.80274-0.25976-0.30422-0.18969-0.6594-0.2832-1.0625-0.2832h-2e-3l-0.06836 2e-3c0.44984-0.30753 0.82832-0.60908 1.0254-0.90625 0.22814-0.33864 0.3418-0.73429 0.3418-1.1797 0-0.22007-0.03143-0.52044-0.09375-0.9082-0.05838-0.38803-0.08789-0.65781-0.08789-0.80078 0-0.44742 0.172-0.78611 0.52539-1.0371l0.04883-0.03516-0.12695-0.22266-0.05469 0.02344c-0.3675 0.16255-0.64029 0.38317-0.81055 0.66211-0.17024 0.2789-0.25391 0.63858-0.25391 1.0742 0 0.15998 0.01818 0.41036 0.05273 0.75586 0.03433 0.34324 0.05078 0.61262 0.05078 0.80859 0 0.39526-0.06813 0.70646-0.20117 0.93359-0.13262 0.22642-0.41038 0.49415-0.83008 0.79102-0.42712 0.30459-0.71469 0.63033-0.85547 0.98047l-0.01953 0.05078 0.22656 0.14258 0.03516-0.05469c0.25882-0.37983 0.51805-0.55469 0.78125-0.55469 0.20438 0 0.46172 0.09268 0.76562 0.28516h2e-3c0.31993 0.19688 0.60553 0.29883 0.86133 0.29883 0.72799 0 1.3858-0.35714 1.9629-1.0566 0.57843-0.70113 0.86914-1.559 0.86914-2.5605 0-1.0229-0.31131-1.8601-0.93359-2.5-0.61874-0.63983-1.4301-0.96094-2.416-0.96094zm0 0.13281c0.95713 0 1.7244 0.30575 2.3184 0.91992v2e-3c0.59728 0.61415 0.89648 1.4103 0.89648 2.4062 0 0.97592-0.27944 1.7977-0.83789 2.4746-0.3933 0.47673-0.85353 0.56972-1.3066 0.70898-0.1918 0.05895-0.34916 0.30078-0.55274 0.30078-0.21914 0-0.48479-0.09117-0.79102-0.2793h-2e-3c-0.31539-0.19946-0.59296-0.30469-0.83594-0.30469-0.30117 0-0.57695 0.22271-0.83398 0.57226l-0.02734-0.01563c0.12118-0.27361 0.36401-0.53855 0.69726-0.79492l0.48047-0.02148c0.38238 0 0.71074 0.08818 0.99219 0.26367l2e-3 2e-3c0.30374 0.18366 0.59402 0.27734 0.87109 0.27734 0.46367 0 0.87958-0.27484 1.2383-0.79883 0.36356-0.52592 0.54492-1.1745 0.54492-1.9395 0-1.0028-0.31844-1.8533-0.95312-2.5371-0.63092-0.68349-1.4068-1.0293-2.3125-1.0293-0.69868 0-1.2861 0.20877-1.75 0.62305-0.46316 0.41012-0.69922 0.91639-0.69922 1.5059 0 0.32575 0.08955 0.60092 0.27344 0.81055 0.18333 0.20899 0.42263 0.31641 0.70117 0.31641 0.2385 0 0.44709-0.08053 0.61133-0.23828 0.1503-0.14435 0.25596-0.36672 0.33789-0.63086l0.01367 2e-3c-0.05345 0.39549-0.16985 0.71143-0.36914 0.91992-0.20929 0.22237-0.45986 0.33008-0.76758 0.33008-0.29933 0-0.5389-0.11057-0.73438-0.33789-0.1929-0.23214-0.28906-0.51602-0.28906-0.86524 0-0.70511 0.28608-1.3167 0.87109-1.8477 0.587-0.52965 1.3201-0.79492 2.2129-0.79492zm0.71875 0.93164 0.01563 0.0293c-0.3423 0.26963-0.54688 0.62652-0.54688 1.082 0 0.1602 0.02913 0.42976 0.08789 0.82031 0.06171 0.38394 0.0918 0.68155 0.0918 0.88867 0 0.42276-0.10553 0.78955-0.31836 1.1055-0.20872 0.31474-0.58618 0.64957-1.1328 0.99805l-0.17188 0.11133c0.02619-0.01974 0.0272-0.04093 0.05469-0.06055 0.42779-0.30258 0.71731-0.57809 0.86719-0.83398 0.14946-0.25518 0.2207-0.58912 0.2207-1 0-0.20366-0.01815-0.47648-0.05273-0.82227-0.03435-0.34352-0.05078-0.59211-0.05078-0.74219 0-0.41874 0.07882-0.75226 0.23242-1.0039 0.14408-0.23604 0.38739-0.42174 0.70312-0.57226z" color="#000000"/>
   </g>
  </g>
  <g transform="matrix(28.128 0 0 28.128 -2793.9 -1729.3)" style="white-space:pre" aria-label="S">
   <g fill="#282828">
    <path d="m109.66 64.526q-0.18087 0.29972-0.57878 0.5116-0.39791 0.2067-0.76481 0.2067-0.36173 0-1.018-0.21187-0.65112-0.21187-0.84232-0.21187-0.35657 0-0.61495 0.27388-0.25321 0.27388-0.25321 0.66146 0 0.37724 0.23254 0.62012 0.23771 0.23771 0.58394 0.37724 0.3514 0.13436 1.0904 0.34106 0.73897 0.20154 1.1886 0.39791 0.44959 0.1912 0.75965 0.57877 0.31522 0.3824 0.31522 1.0077 0 0.93534-0.76998 1.664-0.7648 0.72864-1.8965 0.72864-1.0335 0-1.7157-0.5426-0.67696-0.5426-0.67696-1.2919 0-0.55294 0.39791-0.91984 0.39791-0.37207 1.0284-0.37207 0.66146 0 1.1162 0.3669 0.45992 0.36173 0.45992 0.86299 0 0.34106-0.23771 0.56327-0.23255 0.21704-0.56328 0.21704-0.54776 0-0.81648-0.50643l0.12919-0.07235q0.19637 0.20154 0.43408 0.20154 0.25321 0 0.41858-0.1757 0.17053-0.18087 0.17053-0.44958 0-0.3359-0.28422-0.5581-0.27905-0.22738-0.67696-0.22738-0.46509 0-0.77514 0.34106-0.30489 0.34106-0.30489 0.81648 0 0.62528 0.54777 1.0749 0.55293 0.44958 1.3901 0.44958 0.894 0 1.4883-0.5581 0.59428-0.56327 0.59428-1.3177 0-0.51676-0.27905-0.83716-0.27389-0.32039-0.66146-0.48059-0.3824-0.1602-1.0697-0.35657-0.68729-0.19637-1.0749-0.35657-0.38241-0.1602-0.64596-0.46509-0.25838-0.30489-0.25838-0.79581 0-0.67179 0.53227-1.1524 0.53226-0.48576 1.2351-0.48576 0.32556 0 0.93017 0.17053 0.60978 0.16536 0.8785 0.16536 0.43925 0 0.76481-0.34623z" color="#000000"/>
    <path d="m109.56 64.305-0.0625 0.06641c-0.20338 0.21629-0.43169 0.31836-0.70117 0.31836-0.16057 0-0.45157-0.05322-0.85352-0.16211h-2e-3c-0.40592-0.11437-0.72103-0.17383-0.95313-0.17383-0.48901 0-0.92569 0.1728-1.2949 0.50976-0.37014 0.3342-0.56055 0.74546-0.56055 1.2168 0 0.34288 0.0918 0.63231 0.2793 0.85352v2e-3c0.18457 0.21352 0.41292 0.37653 0.67969 0.48828 0.26367 0.10898 0.62389 0.22792 1.084 0.35938 0.45625 0.13036 0.81118 0.24905 1.0606 0.35352 0.24588 0.10163 0.45306 0.25361 0.62695 0.45703h2e-3c0.17049 0.19575 0.25586 0.45079 0.25586 0.7793 0 0.47874-0.1841 0.89056-0.56445 1.252-4.6e-4 4.28e-4 -2e-3 -4.28e-4 -2e-3 0-5e-4 4.68e-4 4.9e-4 0.0015 0 2e-3 -0.37964 0.35566-0.84923 0.5332-1.4258 0.5332-0.5422 0-0.9824-0.14382-1.334-0.42969-0.34956-0.2869-0.51562-0.61496-0.51562-1.0059 0-0.29795 0.0936-0.54574 0.2832-0.75781 0.19155-0.21001 0.41936-0.31055 0.70703-0.31055 0.24835 0 0.4511 0.06852 0.6211 0.20703h2e-3c0.17236 0.13476 0.25 0.28942 0.25 0.48828 0 0.16034-0.0479 0.28408-0.14649 0.38867-0.0947 0.10065-0.20526 0.14844-0.35351 0.14844-0.13336 0-0.25269-0.05426-0.3711-0.17578l-0.0469-0.04883-0.26367 0.14844 0.0391 0.07813c0.19087 0.3597 0.50392 0.55273 0.89648 0.55273 0.23993 0 0.45265-0.0812 0.62305-0.24023 0.17505-0.16363 0.26563-0.38088 0.26563-0.62891 0-0.36045-0.17146-0.67846-0.49219-0.93164-4.8e-4 -3.87e-4 -1e-3 3.87e-4 -2e-3 0-0.31931-0.25705-0.71321-0.38672-1.1699-0.38672-0.43778 0-0.80746 0.13244-1.0898 0.39648-0.28071 0.2595-0.42578 0.59508-0.42578 0.98438 0 0.5263 0.24405 0.98711 0.71094 1.3613 0.47186 0.37535 1.0669 0.5625 1.7715 0.5625 0.77355 0 1.4313-0.25305 1.957-0.75391 0.52711-0.49881 0.79688-1.0806 0.79688-1.7285 0-0.43179-0.11067-0.79117-0.33594-1.0645-0.2147-0.26766-0.47965-0.47082-0.79102-0.60352h-2e-3c-0.30569-0.1334-0.70464-0.26746-1.1992-0.40234-0.49054-0.13722-0.85096-0.25037-1.0801-0.33789h-2e-3c-0.22039-0.08904-0.40374-0.20843-0.55273-0.35742-0.13796-0.145-0.20703-0.3244-0.20703-0.55664 0-0.23902 0.0758-0.43432 0.23046-0.60156 0.1579-0.16672 0.33451-0.24609 0.54883-0.24609 0.0946 0 0.38281 0.06853 0.81446 0.20898 0.44206 0.14272 0.78836 0.21484 1.0469 0.21484 0.26129 0 0.5295-0.07384 0.80469-0.2168h2e-3c0.27569-0.14679 0.48064-0.3264 0.61133-0.54297l0.0371-0.06055-0.0488-0.04883zm-2.5723 0.22656c0.20152 0 0.50719 0.05541 0.90625 0.16797h2e-3c0.40971 0.11111 0.70302 0.16797 0.9004 0.16797 0.26788 0 0.49457-0.13893 0.70312-0.31641-0.11158 0.15042-0.24744 0.29244-0.46484 0.4082-0.25536 0.13265-0.49475 0.19531-0.72266 0.19531-0.2238 0-0.5592-0.06725-0.99219-0.20703-0.42682-0.13888-0.68795-0.20967-0.84961-0.21289 0.17489-0.05956 0.32015-0.20312 0.51758-0.20312zm-0.7832 0.30859c-0.14152 0.04403-0.29116 0.06711-0.4043 0.17969 8e-3 -0.0072 4e-3 -0.01822 0.0117-0.02539h2e-3c0.11332-0.10342 0.26651-0.08582 0.39063-0.1543zm-0.54688 0.48633c-0.0653 0.13923-0.16406 0.26466-0.16406 0.42969 0 0.26975 0.0869 0.50312 0.25781 0.68164 0.16758 0.16758 0.37473 0.30152 0.61524 0.39844 0.23947 0.09157 0.60567 0.20558 1.0996 0.34375 0.48999 0.13363 0.88221 0.2663 1.1758 0.39453h2e-3c0.2866 0.12188 0.52654 0.30515 0.72461 0.55273 0.19502 0.23659 0.29492 0.54925 0.29492 0.95117 0 0.59917-0.24266 1.1269-0.74218 1.5996-0.49402 0.47065-1.0986 0.70508-1.834 0.70508-0.67274 0-1.2228-0.17606-1.6602-0.52344-0.43572-0.34925-0.64453-0.74988-0.64453-1.2227 0-0.3473 0.12023-0.62595 0.36914-0.85547 0.24817-0.23205 0.56594-0.34766 0.96875-0.34766 0.0578 0 0.0895 0.04258 0.14454 0.04687-0.32979 0.0012-0.61542 0.1246-0.83594 0.36719-0.21694 0.24267-0.32813 0.54101-0.32813 0.87695 0 0.44281 0.19928 0.83004 0.58008 1.1426 0.38566 0.31357 0.87325 0.4707 1.4473 0.4707 0.61449 0 1.1364-0.19474 1.5488-0.58203 0.41057-0.38914 0.6211-0.8565 0.6211-1.3828 0-0.35956-0.0983-0.66332-0.29883-0.89453l-2e-3 -2e-3c-0.19095-0.22272-0.42334-0.3923-0.69336-0.50391-0.2605-0.10913-0.61993-0.2279-1.0801-0.35938-0.4563-0.13037-0.81137-0.24891-1.0644-0.35352-0.24312-0.10185-0.44646-0.24841-0.61328-0.44141-0.1563-0.18513-0.23633-0.42734-0.23633-0.73828 0-0.29451 0.18601-0.51909 0.34765-0.75391zm1.123 3.3242c0.12669 0.05439 0.29215 0.04353 0.40039 0.13086 0.29093 0.22882 0.42578 0.48598 0.42578 0.79297 0 0.20673-0.0671 0.3654-0.20898 0.49805-0.13967 0.13035-0.30091 0.19336-0.50196 0.19336-0.23248 0-0.36189-0.1711-0.50781-0.31641 0.0851 0.04027 0.16022 0.11719 0.25391 0.11719 0.18936 0 0.35666-0.06951 0.48242-0.20312 0.12876-0.13656 0.19531-0.31377 0.19531-0.51172 0-0.249-0.11176-0.46543-0.31836-0.62695-0.0608-0.04938-0.1518-0.03967-0.2207-0.07422z" color="#000000"/>
   </g>
  </g>
 </g>
</svg>
