<?xml version="1.0" encoding="UTF-8" standalone="no"?>
<svg
   width="540.906px"
   height="540.906px"
   viewBox="-118.513 4.399 540.906 540.906"
   version="1.1"
   id="svg16"
   sodipodi:docname="java-4-logo.svg"
   inkscape:version="1.2 (dc2aedaf03, 2022-05-15)"
   xmlns:inkscape="http://www.inkscape.org/namespaces/inkscape"
   xmlns:sodipodi="http://sodipodi.sourceforge.net/DTD/sodipodi-0.dtd"
   xmlns="http://www.w3.org/2000/svg"
   xmlns:svg="http://www.w3.org/2000/svg">
  <defs
     id="defs20" />
  <sodipodi:namedview
     id="namedview18"
     pagecolor="#ffffff"
     bordercolor="#666666"
     borderopacity="1.0"
     inkscape:showpageshadow="2"
     inkscape:pageopacity="0.0"
     inkscape:pagecheckerboard="0"
     inkscape:deskcolor="#d1d1d1"
     showgrid="false"
     inkscape:zoom="1.8469013"
     inkscape:cx="288.05005"
     inkscape:cy="275.86748"
     inkscape:window-width="2560"
     inkscape:window-height="1356"
     inkscape:window-x="0"
     inkscape:window-y="48"
     inkscape:window-maximized="1"
     inkscape:current-layer="svg16" />
  <path
     d="m 84.672298,419.38022 c 0,0 -20.128595,11.70548 14.32484,15.66645 41.739372,4.7617 63.071882,4.07882 109.068942,-4.62682 0,0 12.09306,7.58265 28.98189,14.15022 C 133.93469,488.76268 3.6823096,442.01034 84.672298,419.38022 M 72.072405,361.71174 c 0,0 -22.576173,16.71136 11.902824,20.27766 44.587291,4.59986 79.798861,4.97608 140.728391,-6.75638 0,0 8.42879,8.54381 21.68033,13.21605 -124.67151,36.45522 -263.531573,2.87491 -174.311545,-26.73733"
     fill="#5382a1"
     id="path4"
     style="fill:#5382a1;fill-opacity:1;stroke:#5382a1;stroke-width:14.211;stroke-dasharray:none;stroke-opacity:1" />
  <path
     d="m 178.29341,263.88688 c 25.40708,29.25163 -6.67403,55.57582 -6.67403,55.57582 0,0 64.51004,-33.30347 34.8836,-75.00735 -27.67149,-38.89285 -48.89185,-58.21506 65.98654,-124.84045 9.7e-4,-9.8e-4 -180.321168,45.03449 -94.19611,144.27198"
     fill="#e76f00"
     id="path6"
     style="stroke:#e76f00;stroke-width:14.211;stroke-dasharray:none;stroke-opacity:1" />
  <path
     d="m 314.669,462.0353 c 0,0 14.89556,12.27478 -16.40471,21.76836 -59.51835,18.03027 -247.721727,23.47484 -300.0038389,0.71978 -18.7940741,-8.17751 16.4501379,-19.5238 27.5366259,-21.90465 11.562088,-2.5072 18.169399,-2.04011 18.169399,-2.04011 C 23.065561,445.85489 -91.128522,489.48815 -14.038466,501.98583 196.19734,536.08008 369.20275,486.63312 314.669,462.0353 M 94.351854,301.96056 c 0,0 -95.7322173,22.73802 -33.901165,30.99503 26.106983,3.49532 78.150571,2.70454 126.626451,-1.35723 39.61833,-3.342 79.40134,-10.44621 79.40134,-10.44621 0,0 -13.96991,5.98264 -24.0768,12.88242 -97.21439,25.56891 -285.014577,13.67319 -230.949317,-12.47923 45.723064,-22.10198 82.899491,-19.59478 82.899491,-19.59478 M 266.0838,397.95258 c 98.82293,-51.35219 53.13251,-100.70261 21.23881,-94.0527 -7.8169,1.62698 -11.30229,3.03675 -11.30229,3.03675 0,0 2.90331,-4.5459 8.443,-6.51361 63.09317,-22.18149 111.6159,65.42149 -20.36711,100.11911 0,0 1.53187,-1.36576 1.98759,-2.58955"
     fill="#5382a1"
     id="path8"
     style="fill:#5382a1;fill-opacity:1;stroke:#5382a1;stroke-width:14.211;stroke-dasharray:none;stroke-opacity:1" />
  <path
     d="m 206.50298,12.030959 c 0,0 54.72969,54.746718 -51.90872,138.935301 C 69.081087,218.49744 135.0946,257.00271 154.55877,300.998 104.64472,255.96065 68.013464,216.31677 92.588584,179.41861 128.65764,125.25539 228.58509,98.995074 206.50298,12.030959"
     fill="#e76f00"
     id="path10"
     style="fill:#e76f00;fill-opacity:1;stroke:#e76f00;stroke-width:14.211;stroke-dasharray:none;stroke-opacity:1" />
  <path
     d="m 104.06265,537.10511 c 94.85768,6.07208 240.5224,-3.36896 243.97087,-48.25157 0,0 -6.63003,17.01377 -78.39477,30.52795 -80.9616,15.23488 -180.819489,13.4574 -240.045379,3.69265 0.0029,-0.003 12.125712,10.03308 74.469279,14.03097"
     fill="#5382a1"
     id="path12"
     style="fill:#5382a1;fill-opacity:1;stroke:#5382a1;stroke-width:14.211;stroke-dasharray:none;stroke-opacity:1" />
</svg>
